PathFileType	4	(X/Y/Z)	Run_500 01
DataRate	CameraRate	NumFrames	NumMarkers	Units	OrigDataRate	OrigDataStartFrame	OrigNumFrames
120	120	4	42	mm	120	177	128
Frame#	Time	LASI			RASI			LPSI			RPSI			RTH1			RTH2			RTH3			LTH1			LTH2			LTH3			RTB1			RTB2			LTB1			LTB2			LTB3			RCAL			RTOE			RMT5			LCAL			LTOE			LMT5			LACR			RACR			CLAV			C7			RUA1			RUA2			RUA3			RLEL			LUA1			LUA2			LUA3			LLEL			LMEL			RFAsuperior			RFAradius			RFAulna			LFAsuperior			LFAradius			LFAulna			RMEL			RTB3			
		X1	Y1	Z1	X2	Y2	Z2	X3	Y3	Z3	X4	Y4	Z4	X5	Y5	Z5	X6	Y6	Z6	X7	Y7	Z7	X8	Y8	Z8	X9	Y9	Z9	X10	Y10	Z10	X11	Y11	Z11	X12	Y12	Z12	X13	Y13	Z13	X14	Y14	Z14	X15	Y15	Z15	X16	Y16	Z16	X17	Y17	Z17	X18	Y18	Z18	X19	Y19	Z19	X20	Y20	Z20	X21	Y21	Z21	X22	Y22	Z22	X23	Y23	Z23	X24	Y24	Z24	X25	Y25	Z25	X26	Y26	Z26	X27	Y27	Z27	X28	Y28	Z28	X29	Y29	Z29	X30	Y30	Z30	X31	Y31	Z31	X32	Y32	Z32	X33	Y33	Z33	X34	Y34	Z34	X35	Y35	Z35	X36	Y36	Z36	X37	Y37	Z37	X38	Y38	Z38	X39	Y39	Z39	X40	Y40	Z40	X41	Y41	Z41	X42	Y42	Z42	

175	1.641667	1167.671868	951.921291	-437.127313	1136.973251	957.346111	-198.200579	999.1388030000001	1011.736078	-397.863976	987.319361	1014.722598	-300.441047	1045.863345	808.970948	-162.439248	1100.013897	653.875545	-187.815508	1027.804373	569.952117	-217.806808	1159.377472	809.691695	-505.305079	1289.512714	785.051925	-483.907509	1309.903521	653.7695179999999	-491.781858	1001.010214	342.223712	-294.399123	920.809357	322.187791	-244.996872	1277.972872	500.34464	-428.26271	1171.664991	530.5976439999999	-474.214199	1079.02674	487.429221	-413.580698	683.893462	155.849374	-352.639883	878.849437	76.212688	-360.004249	840.289804	43.933322	-258.551564	927.163001	581.230432	-399.671752	950.9625569999999	375.237766	-383.022823	925.355199	387.722902	-489.380123	1142.323735	1446.960717	-494.758449	1171.491786	1421.672381	-126.985064	1230.56167	1387.939556	-296.965862	1115.170825	1475.374432	-314.55091	1147.159345	1332.005254	-87.099253	1154.24141	1245.307809	-101.801331	1063.14986	1243.473954	-84.280131	1041.725623	1129.837708	-67.227384	1082.397901	1400.274316	-543.672017	1013.479322	1366.330468	-503.533129	1027.550918	1314.282124	-570.609421	913.732475	1265.698082	-593.507306	895.8853769999999	1260.354771	-524.8801989999999	1140.538856	1113.033023	-71.278183	1293.463005	1054.40918	-130.924815	1266.058603	991.040453	-126.216248	967.891426	1199.081334	-605.020537	1062.111532	1028.90163	-551.243118	1002.888198	1012.104408	-580.975087	1022.216009	1127.126124	-134.267976	873.618608	213.909054	-315.216622	
176	1.65	1170.466082	959.611972	-436.176355	1140.879551	961.3016	-198.404779	1001.856265	1018.534984	-396.504652	991.038243	1020.802615	-298.548947	1044.332195	814.372659	-162.418724	1088.812279	657.7197169999999	-188.409153	1011.187062	577.714237	-216.07754	1164.861363	821.6504200000001	-506.766486	1294.379121	803.000868	-482.875723	1321.308158	673.2586	-491.191269	973.743029	349.911248	-291.236218	893.518694	332.378844	-240.769494	1300.936452	509.36844	-427.027392	1191.708855	528.915487	-473.113474	1103.001199	474.830629	-413.057764	654.267239	173.837962	-346.438602	839.564706	76.555164	-358.643099	798.892233	44.378232	-257.542475	942.82809	550.466594	-399.307986	991.65727	348.856727	-381.913567	963.779576	357.639515	-488.525493	1138.673896	1455.56933	-494.246208	1175.920233	1429.734168	-128.660766	1231.218571	1395.876	-299.890003	1115.131474	1481.907732	-314.557484	1153.231646	1340.126115	-87.880269	1161.200754	1253.640581	-102.158226	1070.344132	1250.835082	-82.732091	1050.915585	1136.794166	-65.020337	1077.194475	1412.113452	-541.635274	1009.069956	1378.719524	-500.470389	1020.478843	1327.495939	-568.610016	904.599007	1281.691654	-588.579348	888.651729	1276.264029	-518.899873	1150.729036	1125.525232	-70.807481	1305.848467	1079.995198	-136.155575	1283.372288	1014.849699	-131.820723	957.940997	1215.023508	-602.0487460000001	1052.568721	1043.854016	-552.68187	992.356051	1028.092237	-580.246453	1030.994541	1133.649248	-132.292956	844.20716	224.013776	-310.057432	
177	1.658333	1173.625987	968.641275	-435.829138	1145.859162	965.570464	-198.991899	1004.795486	1025.76853	-394.530755	995.4671949999999	1026.91434	-295.874138	1044.03985	820.305693	-162.394233	1078.339642	662.5995359999999	-189.099052	995.479277	586.893315	-213.576795	1170.127157	834.427698	-508.380839	1298.263176	819.8433680000001	-481.965255	1330.601414	691.494553	-490.482416	947.034724	359.289357	-287.494434	866.92142	344.014757	-235.807776	1322.673134	517.623303	-425.307852	1211.648581	525.9830470000001	-472.089579	1128.666381	461.483364	-412.371205	627.402543	192.758804	-339.667882	800.59239	76.996707	-357.098531	757.779482	45.73219	-256.255448	962.29389	518.5181669999999	-398.8889	1034.472064	323.588807	-380.854613	1005.085053	328.483714	-486.901652	1135.561218	1464.720482	-493.677916	1180.226469	1438.260228	-130.643478	1231.855727	1404.328754	-302.763973	1115.256244	1488.970088	-314.566587	1158.747206	1348.928449	-88.775161	1167.346762	1262.316815	-103.400205	1076.957249	1259.093475	-81.28838399999999	1059.314287	1144.800649	-62.848271	1072.995825	1424.340156	-539.676047	1005.636267	1392.003927	-497.682623	1014.508922	1340.894933	-566.366931	896.797839	1297.902592	-583.661933	882.667426	1292.777025	-512.738908	1159.548899	1138.984472	-70.651875	1315.387045	1104.802007	-141.206707	1297.51097	1038.336027	-137.658716	949.2039150000001	1231.106992	-598.594115	1044.331284	1059.219536	-552.515248	983.6209689999999	1044.326279	-579.203785	1038.689751	1141.317014	-130.213987	816.524079	235.045451	-303.887165	
178	1.666667	1176.927816	978.518115	-435.956921	1151.554942	969.654241	-200.254197	1007.867906	1033.367306	-391.968799	1000.500892	1033.035818	-292.671086	1044.982941	826.459657	-162.244899	1068.388963	668.096784	-189.907126	980.478234	597.241696	-210.745722	1175.246526	847.620033	-509.745086	1301.470579	835.432349	-481.315495	1337.837881	707.84322	-489.702794	921.458762	370.137279	-282.878114	841.28235	356.84611	-230.196777	1343.438302	524.948208	-423.402259	1231.804326	521.56763	-471.167939	1156.442233	447.612135	-411.616129	604.306259	211.996256	-332.337017	763.111479	78.268979	-354.93605	718.380683	48.619912	-254.426805	985.526909	486.042282	-398.492103	1079.145429	299.778814	-379.806499	1048.94097	300.581081	-484.315727	1132.989122	1473.917782	-493.126471	1184.385254	1447.099543	-132.833545	1232.488433	1413.016994	-305.525946	1115.589418	1496.191864	-314.666639	1163.882182	1358.215936	-89.756606	1172.73268	1271.203551	-105.099177	1082.946212	1268.095473	-79.950368	1066.99311	1153.608714	-60.696087	1069.629746	1436.595597	-537.920873	1003.129913	1405.854945	-494.990475	1009.376867	1354.209355	-564.028101	889.990516	1314.024275	-578.771607	877.884993	1309.444587	-506.554575	1167.171519	1153.048169	-70.780851	1322.6116	1128.056085	-146.111728	1308.914793	1060.743511	-143.103545	941.324399	1247.013938	-594.9542279999999	1037.453058	1074.774523	-551.409548	976.411798	1060.332623	-577.699565	1045.154831	1149.775337	-127.897381	791.1770320000001	246.491028	-296.897732	
